<mxfile host="app.diagrams.net" modified="2023-04-03T08:49:00.314Z" agent="Mozilla/5.0 (Windows NT 10.0; Win64; x64) AppleWebKit/537.36 (KHTML, like Gecko) Chrome/111.0.0.0 Safari/537.36 Edg/111.0.1661.62" etag="zCHJ6y0ffxeYvjv6TPk_" version="21.1.3" type="github">
  <diagram name="Page-1" id="38b20595-45e3-9b7f-d5ca-b57f44c5b66d">
    <mxGraphModel dx="3343" dy="2390" grid="1" gridSize="10" guides="1" tooltips="1" connect="1" arrows="1" fold="1" page="1" pageScale="1" pageWidth="1100" pageHeight="850" background="none" math="0" shadow="0">
      <root>
        <mxCell id="0" />
        <mxCell id="1" parent="0" />
        <mxCell id="0exK_nAWfHrdyeSwsjHp-2" value="" style="verticalLabelPosition=bottom;html=1;verticalAlign=top;align=center;shape=mxgraph.floorplan.wall;fillColor=strokeColor;direction=south;" parent="1" vertex="1">
          <mxGeometry x="430" y="630" width="10" height="220" as="geometry" />
        </mxCell>
        <mxCell id="0exK_nAWfHrdyeSwsjHp-4" value="" style="verticalLabelPosition=bottom;html=1;verticalAlign=top;align=center;shape=mxgraph.floorplan.wallCorner;fillColor=strokeColor;direction=north" parent="1" vertex="1">
          <mxGeometry x="-10" y="670" width="100" height="180" as="geometry" />
        </mxCell>
        <mxCell id="0exK_nAWfHrdyeSwsjHp-5" value="" style="verticalLabelPosition=bottom;html=1;verticalAlign=top;align=center;shape=mxgraph.floorplan.wall;fillColor=strokeColor;direction=south;" parent="1" vertex="1">
          <mxGeometry x="-10" y="10" width="10" height="680" as="geometry" />
        </mxCell>
        <mxCell id="0exK_nAWfHrdyeSwsjHp-6" value="" style="verticalLabelPosition=bottom;html=1;verticalAlign=top;align=center;shape=mxgraph.floorplan.wall;fillColor=strokeColor;direction=south;" parent="1" vertex="1">
          <mxGeometry x="545" y="630" width="10" height="220" as="geometry" />
        </mxCell>
        <mxCell id="0exK_nAWfHrdyeSwsjHp-7" value="" style="verticalLabelPosition=bottom;html=1;verticalAlign=top;align=center;shape=mxgraph.floorplan.wall;fillColor=strokeColor;direction=south;rotation=90;" parent="1" vertex="1">
          <mxGeometry x="830" y="250" width="10" height="530" as="geometry" />
        </mxCell>
        <mxCell id="0exK_nAWfHrdyeSwsjHp-8" value="" style="verticalLabelPosition=bottom;html=1;verticalAlign=top;align=center;shape=mxgraph.floorplan.wall;fillColor=strokeColor;direction=south;rotation=90;" parent="1" vertex="1">
          <mxGeometry x="245" y="665" width="10" height="360" as="geometry" />
        </mxCell>
        <mxCell id="0exK_nAWfHrdyeSwsjHp-9" value="" style="verticalLabelPosition=bottom;html=1;verticalAlign=top;align=center;shape=mxgraph.floorplan.wall;fillColor=strokeColor;" parent="1" vertex="1">
          <mxGeometry x="545" y="621" width="465" height="10" as="geometry" />
        </mxCell>
        <mxCell id="0exK_nAWfHrdyeSwsjHp-10" value="" style="verticalLabelPosition=bottom;html=1;verticalAlign=top;align=center;shape=mxgraph.floorplan.stairs;direction=south;" parent="1" vertex="1">
          <mxGeometry x="990" y="611" width="100" height="230" as="geometry" />
        </mxCell>
        <mxCell id="0exK_nAWfHrdyeSwsjHp-11" value="" style="verticalLabelPosition=bottom;html=1;verticalAlign=top;align=center;shape=mxgraph.floorplan.wall;fillColor=strokeColor;" parent="1" vertex="1">
          <mxGeometry x="545" y="841" width="455" height="10" as="geometry" />
        </mxCell>
        <mxCell id="0exK_nAWfHrdyeSwsjHp-12" value="" style="verticalLabelPosition=bottom;html=1;verticalAlign=top;align=center;shape=mxgraph.floorplan.wallCorner;fillColor=strokeColor;direction=west" parent="1" vertex="1">
          <mxGeometry x="1000" y="751" width="100" height="100" as="geometry" />
        </mxCell>
        <mxCell id="0exK_nAWfHrdyeSwsjHp-13" value="" style="verticalLabelPosition=bottom;html=1;verticalAlign=top;align=center;shape=mxgraph.floorplan.wall;fillColor=strokeColor;direction=south;" parent="1" vertex="1">
          <mxGeometry x="1090" y="620" width="10" height="140" as="geometry" />
        </mxCell>
        <mxCell id="0exK_nAWfHrdyeSwsjHp-15" value="" style="verticalLabelPosition=bottom;html=1;verticalAlign=top;align=center;shape=mxgraph.floorplan.wall;fillColor=strokeColor;direction=south;" parent="1" vertex="1">
          <mxGeometry x="1091" width="10" height="520" as="geometry" />
        </mxCell>
        <mxCell id="0exK_nAWfHrdyeSwsjHp-17" value="" style="verticalLabelPosition=bottom;html=1;verticalAlign=top;align=center;shape=mxgraph.floorplan.wall;fillColor=strokeColor;" parent="1" vertex="1">
          <mxGeometry x="570" y="111" width="530" height="10" as="geometry" />
        </mxCell>
        <mxCell id="0exK_nAWfHrdyeSwsjHp-18" value="" style="verticalLabelPosition=bottom;html=1;verticalAlign=top;align=center;shape=mxgraph.floorplan.wall;fillColor=strokeColor;" parent="1" vertex="1">
          <mxGeometry y="510" width="430" height="10" as="geometry" />
        </mxCell>
        <mxCell id="0exK_nAWfHrdyeSwsjHp-19" value="" style="verticalLabelPosition=bottom;html=1;verticalAlign=top;align=center;shape=mxgraph.floorplan.doorDouble;aspect=fixed;direction=north;" parent="1" vertex="1">
          <mxGeometry x="381.56" y="521" width="58.44" height="110" as="geometry" />
        </mxCell>
        <mxCell id="0exK_nAWfHrdyeSwsjHp-22" value="" style="verticalLabelPosition=bottom;html=1;verticalAlign=top;align=center;shape=mxgraph.floorplan.wall;fillColor=strokeColor;direction=south;" parent="1" vertex="1">
          <mxGeometry x="570" y="280" width="10" height="240" as="geometry" />
        </mxCell>
        <mxCell id="0exK_nAWfHrdyeSwsjHp-23" value="" style="verticalLabelPosition=bottom;html=1;verticalAlign=top;align=center;shape=mxgraph.floorplan.doorUneven;dx=0.5;direction=south;" parent="1" vertex="1">
          <mxGeometry x="570" y="121" width="85" height="160" as="geometry" />
        </mxCell>
        <mxCell id="0exK_nAWfHrdyeSwsjHp-24" value="" style="verticalLabelPosition=bottom;html=1;verticalAlign=top;align=center;shape=mxgraph.floorplan.doorDouble;aspect=fixed;" parent="1" vertex="1">
          <mxGeometry x="440" y="800" width="105" height="55.78" as="geometry" />
        </mxCell>
        <mxCell id="0exK_nAWfHrdyeSwsjHp-25" value="" style="verticalLabelPosition=bottom;html=1;verticalAlign=top;align=center;shape=mxgraph.floorplan.wall;fillColor=strokeColor;" parent="1" vertex="1">
          <mxGeometry x="-10" y="90" width="100" height="10" as="geometry" />
        </mxCell>
        <mxCell id="0exK_nAWfHrdyeSwsjHp-26" value="" style="verticalLabelPosition=bottom;html=1;verticalAlign=top;align=center;shape=mxgraph.floorplan.wall;fillColor=strokeColor;" parent="1" vertex="1">
          <mxGeometry x="270" y="90" width="160" height="10" as="geometry" />
        </mxCell>
        <mxCell id="0exK_nAWfHrdyeSwsjHp-27" value="" style="verticalLabelPosition=bottom;html=1;verticalAlign=top;align=center;shape=mxgraph.floorplan.wall;fillColor=strokeColor;direction=south;" parent="1" vertex="1">
          <mxGeometry x="420" y="101" width="10" height="420" as="geometry" />
        </mxCell>
        <mxCell id="0exK_nAWfHrdyeSwsjHp-29" value="" style="verticalLabelPosition=bottom;html=1;verticalAlign=top;align=center;shape=mxgraph.floorplan.doorRight;aspect=fixed;" parent="1" vertex="1">
          <mxGeometry x="350" y="6" width="80" height="85" as="geometry" />
        </mxCell>
        <mxCell id="0exK_nAWfHrdyeSwsjHp-30" value="" style="verticalLabelPosition=bottom;html=1;verticalAlign=top;align=center;shape=mxgraph.floorplan.doorRight;aspect=fixed;" parent="1" vertex="1">
          <mxGeometry x="545" y="10" width="96" height="102" as="geometry" />
        </mxCell>
        <mxCell id="0exK_nAWfHrdyeSwsjHp-31" value="" style="verticalLabelPosition=bottom;html=1;verticalAlign=top;align=center;shape=mxgraph.floorplan.wall;fillColor=strokeColor;" parent="1" vertex="1">
          <mxGeometry x="1101" y="841" width="649" height="10" as="geometry" />
        </mxCell>
        <mxCell id="0exK_nAWfHrdyeSwsjHp-32" value="" style="verticalLabelPosition=bottom;html=1;verticalAlign=top;align=center;shape=mxgraph.floorplan.wall;fillColor=strokeColor;" parent="1" vertex="1">
          <mxGeometry x="1100" y="511" width="640" height="10" as="geometry" />
        </mxCell>
        <mxCell id="0exK_nAWfHrdyeSwsjHp-33" value="" style="verticalLabelPosition=bottom;html=1;verticalAlign=top;align=center;shape=mxgraph.floorplan.wall;fillColor=strokeColor;" parent="1" vertex="1">
          <mxGeometry x="-10" y="-4" width="440" height="10" as="geometry" />
        </mxCell>
        <mxCell id="0exK_nAWfHrdyeSwsjHp-34" value="" style="verticalLabelPosition=bottom;html=1;verticalAlign=top;align=center;shape=mxgraph.floorplan.wall;fillColor=strokeColor;" parent="1" vertex="1">
          <mxGeometry x="541" y="-4" width="559" height="10" as="geometry" />
        </mxCell>
        <mxCell id="0exK_nAWfHrdyeSwsjHp-36" value="" style="verticalLabelPosition=bottom;html=1;verticalAlign=top;align=center;shape=mxgraph.floorplan.wall;fillColor=strokeColor;direction=south;" parent="1" vertex="1">
          <mxGeometry x="541" y="-104" width="10" height="100" as="geometry" />
        </mxCell>
        <mxCell id="0exK_nAWfHrdyeSwsjHp-37" value="" style="verticalLabelPosition=bottom;html=1;verticalAlign=top;align=center;shape=mxgraph.floorplan.wall;fillColor=strokeColor;direction=south;" parent="1" vertex="1">
          <mxGeometry x="421" y="-104" width="10" height="100" as="geometry" />
        </mxCell>
        <mxCell id="0exK_nAWfHrdyeSwsjHp-38" value="" style="verticalLabelPosition=bottom;html=1;verticalAlign=top;align=center;shape=mxgraph.floorplan.wall;fillColor=strokeColor;" parent="1" vertex="1">
          <mxGeometry x="541" y="-200" width="559" height="10" as="geometry" />
        </mxCell>
        <mxCell id="0exK_nAWfHrdyeSwsjHp-39" value="" style="verticalLabelPosition=bottom;html=1;verticalAlign=top;align=center;shape=mxgraph.floorplan.wall;fillColor=strokeColor;direction=south;" parent="1" vertex="1">
          <mxGeometry x="1090" y="-190" width="10" height="190" as="geometry" />
        </mxCell>
        <mxCell id="0exK_nAWfHrdyeSwsjHp-40" value="" style="verticalLabelPosition=bottom;html=1;verticalAlign=top;align=center;shape=mxgraph.floorplan.wall;fillColor=strokeColor;" parent="1" vertex="1">
          <mxGeometry y="-199" width="421" height="10" as="geometry" />
        </mxCell>
        <mxCell id="0exK_nAWfHrdyeSwsjHp-41" value="" style="verticalLabelPosition=bottom;html=1;verticalAlign=top;align=center;shape=mxgraph.floorplan.wall;fillColor=strokeColor;direction=south;" parent="1" vertex="1">
          <mxGeometry y="-189" width="10" height="179" as="geometry" />
        </mxCell>
        <mxCell id="0exK_nAWfHrdyeSwsjHp-42" value="" style="verticalLabelPosition=bottom;html=1;verticalAlign=top;align=center;shape=mxgraph.floorplan.wall;fillColor=strokeColor;" parent="1" vertex="1">
          <mxGeometry x="590" y="350" width="100" height="10" as="geometry" />
        </mxCell>
        <mxCell id="0exK_nAWfHrdyeSwsjHp-43" value="" style="verticalLabelPosition=bottom;html=1;verticalAlign=top;align=center;shape=mxgraph.floorplan.wall;fillColor=strokeColor;" parent="1" vertex="1">
          <mxGeometry x="1091" y="612" width="209" height="10" as="geometry" />
        </mxCell>
        <mxCell id="0exK_nAWfHrdyeSwsjHp-44" value="" style="verticalLabelPosition=bottom;html=1;verticalAlign=top;align=center;shape=mxgraph.floorplan.stairs;direction=south;" parent="1" vertex="1">
          <mxGeometry x="1300" y="610" width="100" height="230" as="geometry" />
        </mxCell>
        <mxCell id="0exK_nAWfHrdyeSwsjHp-45" value="" style="verticalLabelPosition=bottom;html=1;verticalAlign=top;align=center;shape=mxgraph.floorplan.wall;fillColor=strokeColor;" parent="1" vertex="1">
          <mxGeometry x="420" y="-198" width="130" height="10" as="geometry" />
        </mxCell>
        <mxCell id="0exK_nAWfHrdyeSwsjHp-46" value="" style="verticalLabelPosition=bottom;html=1;verticalAlign=top;align=center;shape=mxgraph.floorplan.doorLeft;aspect=fixed;" parent="1" vertex="1">
          <mxGeometry x="386" y="-180" width="80" height="85" as="geometry" />
        </mxCell>
        <mxCell id="0exK_nAWfHrdyeSwsjHp-47" value="" style="verticalLabelPosition=bottom;html=1;verticalAlign=top;align=center;shape=mxgraph.floorplan.doorRight;aspect=fixed;" parent="1" vertex="1">
          <mxGeometry x="510" y="-180" width="80" height="85" as="geometry" />
        </mxCell>
        <mxCell id="k5XhKcNRsG6onSJM3xoS-1" value="" style="verticalLabelPosition=bottom;html=1;verticalAlign=top;align=center;shape=mxgraph.floorplan.wall;fillColor=strokeColor;direction=south;" vertex="1" parent="1">
          <mxGeometry x="1060" y="510" width="1375" height="332" as="geometry" />
        </mxCell>
        <mxCell id="k5XhKcNRsG6onSJM3xoS-2" value="" style="verticalLabelPosition=bottom;html=1;verticalAlign=top;align=center;shape=mxgraph.floorplan.wall;fillColor=strokeColor;direction=south;" vertex="1" parent="1">
          <mxGeometry x="710" y="510" width="1375" height="100" as="geometry" />
        </mxCell>
      </root>
    </mxGraphModel>
  </diagram>
</mxfile>
